<svg width="128" height="128" viewBox="0 0 128 128" xmlns="http://www.w3.org/2000/svg">
  <defs>
    <linearGradient id="grad2" x1="0%" y1="0%" x2="100%" y2="100%">
      <stop offset="0%" style="stop-color:#0078D4;stop-opacity:1" />
      <stop offset="100%" style="stop-color:#005A9E;stop-opacity:1" />
    </linearGradient>
    <filter id="shadow">
      <feDropShadow dx="0" dy="2" stdDeviation="3" flood-opacity="0.3"/>
    </filter>
  </defs>
  <rect width="128" height="128" rx="24" fill="url(#grad2)"/>
  <g filter="url(#shadow)">
    <rect x="16" y="32" width="96" height="64" rx="6" fill="none" stroke="white" stroke-width="6"/>
  </g>
  <g opacity="0.9">
    <text x="24" y="50" fill="white" font-size="9" font-weight="bold">From:</text>
    <line x1="24" y1="54" x2="58" y2="54" stroke="white" stroke-width="3" stroke-linecap="round" opacity="0.8"/>
    <line x1="24" y1="60" x2="52" y2="60" stroke="white" stroke-width="2.5" stroke-linecap="round" opacity="0.7"/>
    <line x1="24" y1="65" x2="48" y2="65" stroke="white" stroke-width="2.2" stroke-linecap="round" opacity="0.6"/>
    <line x1="24" y1="70" x2="44" y2="70" stroke="white" stroke-width="2" stroke-linecap="round" opacity="0.5"/>
  </g>
  <g filter="url(#shadow)">
    <circle cx="78" cy="68" r="22" fill="rgba(255,255,255,0.15)"/>
    <circle cx="78" cy="68" r="22" fill="none" stroke="white" stroke-width="6"/>
    <line x1="93" y1="83" x2="108" y2="98" stroke="white" stroke-width="6" stroke-linecap="round"/>
    <line x1="70" y1="68" x2="86" y2="68" stroke="white" stroke-width="2.5" stroke-linecap="round" opacity="0.7"/>
    <line x1="72" y1="73" x2="84" y2="73" stroke="white" stroke-width="2" stroke-linecap="round" opacity="0.5"/>
  </g>
  <path d="M 72 58 Q 76 54 80 56" stroke="white" stroke-width="2" stroke-linecap="round" fill="none" opacity="0.6"/>
  <rect x="90" y="40" width="12" height="10" rx="1" fill="none" stroke="white" stroke-width="2" opacity="0.4"/>
  <path d="M 92 42 L 94 44 L 92 46 M 96 42 L 98 44 L 96 46 M 100 42 L 102 44 L 100 46" stroke="white" stroke-width="1" opacity="0.4"/>
</svg>
